<svg width="35" height="35" viewBox="0 0 35 35" fill="none" xmlns="http://www.w3.org/2000/svg">
<path d="M30.625 0H4.375C3.21468 0 2.10188 0.460936 1.28141 1.28141C0.460936 2.10188 0 3.21468 0 4.375L0 30.625C0 31.7853 0.460936 32.8981 1.28141 33.7186C2.10188 34.5391 3.21468 35 4.375 35H30.625C31.7853 35 32.8981 34.5391 33.7186 33.7186C34.5391 32.8981 35 31.7853 35 30.625V4.375C35 3.21468 34.5391 2.10188 33.7186 1.28141C32.8981 0.460936 31.7853 0 30.625 0ZM2.1875 8.43719C2.1875 7.4025 3.1675 6.5625 4.375 6.5625H30.625C31.8325 6.5625 32.8125 7.4025 32.8125 8.43719V30.9378C32.8125 31.9725 31.8325 32.8125 30.625 32.8125H4.375C3.1675 32.8125 2.1875 31.9725 2.1875 30.9378V8.43719Z" fill="black"/>
<path d="M14.2187 15.3125C14.7989 15.3125 15.3553 15.082 15.7655 14.6718C16.1758 14.2616 16.4062 13.7052 16.4062 13.125C16.4062 12.5448 16.1758 11.9884 15.7655 11.5782C15.3553 11.168 14.7989 10.9375 14.2187 10.9375C13.6386 10.9375 13.0822 11.168 12.672 11.5782C12.2617 11.9884 12.0312 12.5448 12.0312 13.125C12.0312 13.7052 12.2617 14.2616 12.672 14.6718C13.0822 15.082 13.6386 15.3125 14.2187 15.3125ZM20.7812 15.3125C21.3614 15.3125 21.9178 15.082 22.328 14.6718C22.7383 14.2616 22.9687 13.7052 22.9687 13.125C22.9687 12.5448 22.7383 11.9884 22.328 11.5782C21.9178 11.168 21.3614 10.9375 20.7812 10.9375C20.2011 10.9375 19.6447 11.168 19.2345 11.5782C18.8242 11.9884 18.5937 12.5448 18.5937 13.125C18.5937 13.7052 18.8242 14.2616 19.2345 14.6718C19.6447 15.082 20.2011 15.3125 20.7812 15.3125ZM27.3437 15.3125C27.9239 15.3125 28.4803 15.082 28.8905 14.6718C29.3008 14.2616 29.5312 13.7052 29.5312 13.125C29.5312 12.5448 29.3008 11.9884 28.8905 11.5782C28.4803 11.168 27.9239 10.9375 27.3437 10.9375C26.7636 10.9375 26.2072 11.168 25.797 11.5782C25.3867 11.9884 25.1562 12.5448 25.1562 13.125C25.1562 13.7052 25.3867 14.2616 25.797 14.6718C26.2072 15.082 26.7636 15.3125 27.3437 15.3125ZM7.65625 21.875C8.23641 21.875 8.79281 21.6445 9.20305 21.2343C9.61328 20.8241 9.84375 20.2677 9.84375 19.6875C9.84375 19.1073 9.61328 18.5509 9.20305 18.1407C8.79281 17.7305 8.23641 17.5 7.65625 17.5C7.07609 17.5 6.51969 17.7305 6.10945 18.1407C5.69922 18.5509 5.46875 19.1073 5.46875 19.6875C5.46875 20.2677 5.69922 20.8241 6.10945 21.2343C6.51969 21.6445 7.07609 21.875 7.65625 21.875ZM14.2187 21.875C14.7989 21.875 15.3553 21.6445 15.7655 21.2343C16.1758 20.8241 16.4062 20.2677 16.4062 19.6875C16.4062 19.1073 16.1758 18.5509 15.7655 18.1407C15.3553 17.7305 14.7989 17.5 14.2187 17.5C13.6386 17.5 13.0822 17.7305 12.672 18.1407C12.2617 18.5509 12.0312 19.1073 12.0312 19.6875C12.0312 20.2677 12.2617 20.8241 12.672 21.2343C13.0822 21.6445 13.6386 21.875 14.2187 21.875ZM20.7812 21.875C21.3614 21.875 21.9178 21.6445 22.328 21.2343C22.7383 20.8241 22.9687 20.2677 22.9687 19.6875C22.9687 19.1073 22.7383 18.5509 22.328 18.1407C21.9178 17.7305 21.3614 17.5 20.7812 17.5C20.2011 17.5 19.6447 17.7305 19.2345 18.1407C18.8242 18.5509 18.5937 19.1073 18.5937 19.6875C18.5937 20.2677 18.8242 20.8241 19.2345 21.2343C19.6447 21.6445 20.2011 21.875 20.7812 21.875ZM27.3437 21.875C27.9239 21.875 28.4803 21.6445 28.8905 21.2343C29.3008 20.8241 29.5312 20.2677 29.5312 19.6875C29.5312 19.1073 29.3008 18.5509 28.8905 18.1407C28.4803 17.7305 27.9239 17.5 27.3437 17.5C26.7636 17.5 26.2072 17.7305 25.797 18.1407C25.3867 18.5509 25.1562 19.1073 25.1562 19.6875C25.1562 20.2677 25.3867 20.8241 25.797 21.2343C26.2072 21.6445 26.7636 21.875 27.3437 21.875ZM7.65625 28.4375C8.23641 28.4375 8.79281 28.207 9.20305 27.7968C9.61328 27.3866 9.84375 26.8302 9.84375 26.25C9.84375 25.6698 9.61328 25.1134 9.20305 24.7032C8.79281 24.293 8.23641 24.0625 7.65625 24.0625C7.07609 24.0625 6.51969 24.293 6.10945 24.7032C5.69922 25.1134 5.46875 25.6698 5.46875 26.25C5.46875 26.8302 5.69922 27.3866 6.10945 27.7968C6.51969 28.207 7.07609 28.4375 7.65625 28.4375ZM14.2187 28.4375C14.7989 28.4375 15.3553 28.207 15.7655 27.7968C16.1758 27.3866 16.4062 26.8302 16.4062 26.25C16.4062 25.6698 16.1758 25.1134 15.7655 24.7032C15.3553 24.293 14.7989 24.0625 14.2187 24.0625C13.6386 24.0625 13.0822 24.293 12.672 24.7032C12.2617 25.1134 12.0312 25.6698 12.0312 26.25C12.0312 26.8302 12.2617 27.3866 12.672 27.7968C13.0822 28.207 13.6386 28.4375 14.2187 28.4375ZM20.7812 28.4375C21.3614 28.4375 21.9178 28.207 22.328 27.7968C22.7383 27.3866 22.9687 26.8302 22.9687 26.25C22.9687 25.6698 22.7383 25.1134 22.328 24.7032C21.9178 24.293 21.3614 24.0625 20.7812 24.0625C20.2011 24.0625 19.6447 24.293 19.2345 24.7032C18.8242 25.1134 18.5937 25.6698 18.5937 26.25C18.5937 26.8302 18.8242 27.3866 19.2345 27.7968C19.6447 28.207 20.2011 28.4375 20.7812 28.4375Z" fill="black"/>
</svg>
