<svg width="34" height="31" viewBox="0 0 34 31" fill="none" xmlns="http://www.w3.org/2000/svg">
<path d="M16.7806 30.9779C16.2625 30.9773 15.7565 30.8207 15.3285 30.5286C8.98853 26.2248 6.24327 23.2738 4.72907 21.4288C1.5022 17.4961 -0.0426669 13.4585 0.000895793 9.08606C0.051719 4.07554 4.07159 0 8.96191 0C12.5179 0 14.9808 2.00308 16.4152 3.67137C16.4606 3.72369 16.5168 3.76564 16.5798 3.79438C16.6428 3.82313 16.7113 3.83801 16.7806 3.83801C16.8499 3.83801 16.9184 3.82313 16.9814 3.79438C17.0445 3.76564 17.1006 3.72369 17.1461 3.67137C18.5804 2.00147 21.0433 0 24.5993 0C29.4896 0 33.5095 4.07554 33.5603 9.08687C33.6039 13.4601 32.0574 17.4977 28.8322 21.4296C27.318 23.2746 24.5727 26.2256 18.2327 30.5294C17.8047 30.8212 17.2987 30.9775 16.7806 30.9779Z" fill="#FFBC00"/>
</svg>
