<svg width="38" height="38" viewBox="0 0 38 38" fill="none" xmlns="http://www.w3.org/2000/svg">
<path d="M0 18.75C0 8.39466 8.39466 0 18.75 0V0C29.1053 0 37.5 8.39466 37.5 18.75V18.75C37.5 29.1053 29.1053 37.5 18.75 37.5V37.5C8.39466 37.5 0 29.1053 0 18.75V18.75Z" fill="#7E869E" fill-opacity="0.25"/>
<circle cx="18.7513" cy="14.5833" r="8.33333" fill="#222222"/>
<path fill-rule="evenodd" clip-rule="evenodd" d="M31.8159 31.9407C31.8723 32.038 31.8547 32.161 31.7737 32.2392C28.4008 35.4963 23.8096 37.5 18.7505 37.5C13.6914 37.5 9.10028 35.4964 5.72739 32.2393C5.64643 32.1612 5.62875 32.0382 5.68523 31.9409C8.07236 27.8269 13.0263 25 18.7506 25C24.4748 25 29.4287 27.8268 31.8159 31.9407Z" fill="#222222"/>
</svg>
