<svg width="50" height="50" viewBox="0 0 50 50" fill="none" xmlns="http://www.w3.org/2000/svg">
<path d="M6.25 25C6.25 14.6447 14.6447 6.25 25 6.25V6.25C35.3553 6.25 43.75 14.6447 43.75 25V25C43.75 35.3553 35.3553 43.75 25 43.75V43.75C14.6447 43.75 6.25 35.3553 6.25 25V25Z" fill="#7E869E" fill-opacity="0.25"/>
<circle cx="25.0013" cy="20.8333" r="8.33333" fill="#222222"/>
<path fill-rule="evenodd" clip-rule="evenodd" d="M38.0659 38.1907C38.1223 38.288 38.1047 38.411 38.0237 38.4892C34.6508 41.7463 30.0596 43.75 25.0005 43.75C19.9414 43.75 15.3503 41.7464 11.9774 38.4894C11.8964 38.4112 11.8788 38.2882 11.9352 38.1909C14.3224 34.0769 19.2763 31.25 25.0006 31.25C30.7248 31.25 35.6787 34.0768 38.0659 38.1907Z" fill="#222222"/>
</svg>
