<svg width="253" height="72" viewBox="0 0 253 72" fill="none" xmlns="http://www.w3.org/2000/svg">
<g filter="url(#filter0_d_92_1583)">
<path d="M35.1 48.5C34.4 49.1 33.3 49.625 31.8 50.075C30.35 50.525 28.75 50.75 27 50.75C24.9 50.75 23.1 50.45 21.6 49.85C20.1 49.2 19.075 48.325 18.525 47.225C17.975 46.075 17.3 44.6 16.5 42.8C15.7 40.95 14.85 38.9 13.95 36.65C13.1 34.4 12.2 32.025 11.25 29.525C10.35 26.975 9.475 24.4 8.625 21.8C7.775 19.2 6.975 16.65 6.225 14.15C5.475 11.65 4.825 9.3 4.275 7.1C4.975 6.4 5.975 5.775 7.275 5.225C8.625 4.625 10.05 4.325 11.55 4.325C13.4 4.325 14.9 4.725 16.05 5.525C17.25 6.275 18.125 7.7 18.675 9.8C20.025 14.7 21.375 19.4 22.725 23.9C24.125 28.35 25.575 33 27.075 37.85H27.525C28.875 33.15 30.25 28.025 31.65 22.475C33.1 16.925 34.475 11.4 35.775 5.9C36.675 5.45 37.625 5.075 38.625 4.775C39.675 4.475 40.85 4.325 42.15 4.325C44 4.325 45.575 4.75 46.875 5.6C48.175 6.4 48.825 7.75 48.825 9.65C48.825 10.75 48.55 12.35 48 14.45C47.5 16.55 46.825 18.925 45.975 21.575C45.175 24.175 44.25 26.9 43.2 29.75C42.2 32.6 41.175 35.3 40.125 37.85C39.125 40.35 38.175 42.575 37.275 44.525C36.375 46.425 35.65 47.75 35.1 48.5ZM53.7018 14.075C54.2018 13.925 54.9768 13.775 56.0268 13.625C57.1268 13.475 58.2518 13.4 59.4018 13.4C60.5018 13.4 61.4768 13.475 62.3268 13.625C63.2268 13.775 63.9768 14.075 64.5768 14.525C65.1768 14.975 65.6268 15.6 65.9268 16.4C66.2768 17.15 66.4518 18.15 66.4518 19.4V35.525C66.4518 37.575 66.9518 39.05 67.9518 39.95C68.9518 40.8 70.4018 41.225 72.3018 41.225C73.4518 41.225 74.3768 41.125 75.0768 40.925C75.8268 40.725 76.4018 40.525 76.8018 40.325V14.075C77.3018 13.925 78.0768 13.775 79.1268 13.625C80.2268 13.475 81.3518 13.4 82.5018 13.4C83.6018 13.4 84.5768 13.475 85.4268 13.625C86.3268 13.775 87.0768 14.075 87.6768 14.525C88.2768 14.975 88.7268 15.6 89.0268 16.4C89.3768 17.15 89.5518 18.15 89.5518 19.4V42.2C89.5518 44.7 88.5018 46.575 86.4018 47.825C84.6518 48.925 82.5518 49.75 80.1018 50.3C77.7018 50.9 75.0768 51.2 72.2268 51.2C69.5268 51.2 67.0268 50.9 64.7268 50.3C62.4768 49.7 60.5268 48.775 58.8768 47.525C57.2268 46.275 55.9518 44.675 55.0518 42.725C54.1518 40.725 53.7018 38.325 53.7018 35.525V14.075ZM95.7791 31.775C95.7791 28.475 96.2791 25.625 97.2791 23.225C98.2791 20.775 99.6541 18.75 101.404 17.15C103.204 15.55 105.279 14.375 107.629 13.625C110.029 12.825 112.604 12.425 115.354 12.425C116.354 12.425 117.329 12.525 118.279 12.725C119.229 12.875 120.004 13.075 120.604 13.325V1.175C121.104 1.025 121.904 0.874998 123.004 0.725C124.104 0.524999 125.229 0.424999 126.379 0.424999C127.479 0.424999 128.454 0.499998 129.304 0.649996C130.204 0.799997 130.954 1.1 131.554 1.55C132.154 2 132.604 2.625 132.904 3.425C133.204 4.175 133.354 5.175 133.354 6.425V41.975C133.354 44.325 132.254 46.2 130.054 47.6C128.604 48.55 126.729 49.375 124.429 50.075C122.129 50.825 119.479 51.2 116.479 51.2C113.229 51.2 110.304 50.75 107.704 49.85C105.154 48.95 102.979 47.65 101.179 45.95C99.4291 44.25 98.0791 42.225 97.1291 39.875C96.2291 37.475 95.7791 34.775 95.7791 31.775ZM117.079 22.4C114.379 22.4 112.304 23.175 110.854 24.725C109.404 26.275 108.679 28.625 108.679 31.775C108.679 34.875 109.354 37.225 110.704 38.825C112.054 40.375 114.004 41.15 116.554 41.15C117.454 41.15 118.254 41.025 118.954 40.775C119.704 40.475 120.279 40.15 120.679 39.8V23.3C119.679 22.7 118.479 22.4 117.079 22.4ZM159.074 12.425C161.924 12.425 164.499 12.8 166.799 13.55C169.149 14.25 171.124 15.175 172.724 16.325C173.724 17.025 174.499 17.8 175.049 18.65C175.649 19.5 175.949 20.6 175.949 21.95V48.2C175.949 50.85 175.449 53.125 174.449 55.025C173.449 56.975 172.074 58.575 170.324 59.825C168.624 61.125 166.599 62.075 164.249 62.675C161.949 63.275 159.474 63.575 156.824 63.575C152.274 63.575 148.699 62.95 146.099 61.7C143.499 60.5 142.199 58.525 142.199 55.775C142.199 54.625 142.424 53.6 142.874 52.7C143.374 51.85 143.924 51.2 144.524 50.75C145.974 51.55 147.599 52.225 149.399 52.775C151.249 53.325 153.149 53.6 155.099 53.6C157.799 53.6 159.949 53.15 161.549 52.25C163.149 51.35 163.949 49.9 163.949 47.9V46.7C161.899 47.6 159.399 48.05 156.449 48.05C154.199 48.05 152.049 47.725 149.999 47.075C147.999 46.375 146.224 45.325 144.674 43.925C143.174 42.475 141.949 40.625 140.999 38.375C140.099 36.125 139.649 33.45 139.649 30.35C139.649 27.3 140.124 24.65 141.074 22.4C142.074 20.15 143.424 18.3 145.124 16.85C146.874 15.35 148.924 14.25 151.274 13.55C153.674 12.8 156.274 12.425 159.074 12.425ZM163.724 23.3C163.374 23.1 162.849 22.9 162.149 22.7C161.499 22.5 160.674 22.4 159.674 22.4C157.224 22.4 155.374 23.1 154.124 24.5C152.924 25.85 152.324 27.8 152.324 30.35C152.324 33.25 152.924 35.35 154.124 36.65C155.374 37.9 156.949 38.525 158.849 38.525C160.899 38.525 162.524 38.05 163.724 37.1V23.3ZM203.128 51.2C200.178 51.2 197.428 50.8 194.878 50C192.378 49.15 190.178 47.9 188.278 46.25C186.428 44.6 184.953 42.525 183.853 40.025C182.803 37.525 182.278 34.6 182.278 31.25C182.278 27.95 182.803 25.125 183.853 22.775C184.953 20.375 186.378 18.425 188.128 16.925C189.878 15.375 191.878 14.25 194.128 13.55C196.378 12.8 198.678 12.425 201.028 12.425C203.678 12.425 206.078 12.825 208.228 13.625C210.428 14.425 212.303 15.525 213.853 16.925C215.453 18.325 216.678 20 217.528 21.95C218.428 23.9 218.878 26.025 218.878 28.325C218.878 30.025 218.403 31.325 217.453 32.225C216.503 33.125 215.178 33.7 213.478 33.95L194.953 36.725C195.503 38.375 196.628 39.625 198.328 40.475C200.028 41.275 201.978 41.675 204.178 41.675C206.228 41.675 208.153 41.425 209.953 40.925C211.803 40.375 213.303 39.75 214.453 39.05C215.253 39.55 215.928 40.25 216.478 41.15C217.028 42.05 217.303 43 217.303 44C217.303 46.25 216.253 47.925 214.153 49.025C212.553 49.875 210.753 50.45 208.753 50.75C206.753 51.05 204.878 51.2 203.128 51.2ZM201.028 21.725C199.828 21.725 198.778 21.925 197.878 22.325C197.028 22.725 196.328 23.25 195.778 23.9C195.228 24.5 194.803 25.2 194.503 26C194.253 26.75 194.103 27.525 194.053 28.325L206.878 26.225C206.728 25.225 206.178 24.225 205.228 23.225C204.278 22.225 202.878 21.725 201.028 21.725ZM237.765 37.475C237.765 38.775 238.165 39.7 238.965 40.25C239.815 40.8 240.99 41.075 242.49 41.075C243.24 41.075 244.015 41.025 244.815 40.925C245.615 40.775 246.315 40.6 246.915 40.4C247.365 40.95 247.74 41.575 248.04 42.275C248.39 42.925 248.565 43.725 248.565 44.675C248.565 46.575 247.84 48.125 246.39 49.325C244.99 50.525 242.49 51.125 238.89 51.125C234.49 51.125 231.09 50.125 228.69 48.125C226.34 46.125 225.165 42.875 225.165 38.375V6.275C225.715 6.125 226.49 5.975 227.49 5.825C228.54 5.625 229.64 5.525 230.79 5.525C232.99 5.525 234.69 5.925 235.89 6.725C237.14 7.475 237.765 9.1 237.765 11.6V16.4H247.59C247.89 16.95 248.165 17.65 248.415 18.5C248.715 19.3 248.865 20.2 248.865 21.2C248.865 22.95 248.465 24.225 247.665 25.025C246.915 25.775 245.89 26.15 244.59 26.15H237.765V37.475Z" fill="#FFBC00"/>
</g>
<defs>
<filter id="filter0_d_92_1583" x="0.273438" y="0.425781" width="252.594" height="71.1484" filterUnits="userSpaceOnUse" color-interpolation-filters="sRGB">
<feFlood flood-opacity="0" result="BackgroundImageFix"/>
<feColorMatrix in="SourceAlpha" type="matrix" values="0 0 0 0 0 0 0 0 0 0 0 0 0 0 0 0 0 0 127 0" result="hardAlpha"/>
<feOffset dy="4"/>
<feGaussianBlur stdDeviation="2"/>
<feComposite in2="hardAlpha" operator="out"/>
<feColorMatrix type="matrix" values="0 0 0 0 0 0 0 0 0 0 0 0 0 0 0 0 0 0 0.25 0"/>
<feBlend mode="normal" in2="BackgroundImageFix" result="effect1_dropShadow_92_1583"/>
<feBlend mode="normal" in="SourceGraphic" in2="effect1_dropShadow_92_1583" result="shape"/>
</filter>
</defs>
</svg>
