<svg width="406" height="188" viewBox="0 0 406 188" fill="none" xmlns="http://www.w3.org/2000/svg">
<path d="M33.155 20.658C33.881 20.328 35.003 19.965 36.521 19.569C38.105 19.107 39.689 18.876 41.273 18.876C44.045 18.876 46.355 19.305 48.203 20.163C50.051 20.955 51.173 22.143 51.569 23.727C52.295 26.433 52.955 28.974 53.549 31.35C54.209 33.66 54.836 35.904 55.43 38.082C56.024 40.194 56.585 42.306 57.113 44.418C57.707 46.53 58.268 48.741 58.796 51.051H59.291C59.885 47.025 60.413 43.197 60.875 39.567C61.337 35.871 61.766 32.274 62.162 28.776C62.558 25.212 62.954 21.714 63.35 18.282C63.746 14.784 64.142 11.253 64.538 7.689C66.98 6.303 69.587 5.61 72.359 5.61C74.801 5.61 76.913 6.138 78.695 7.194C80.477 8.25 81.368 10.032 81.368 12.54C81.368 13.992 81.203 16.071 80.873 18.777C80.609 21.417 80.213 24.387 79.685 27.687C79.223 30.987 78.662 34.452 78.002 38.082C77.342 41.712 76.649 45.177 75.923 48.477C75.197 51.777 74.438 54.78 73.646 57.486C72.92 60.126 72.227 62.172 71.567 63.624C70.577 64.548 68.96 65.307 66.716 65.901C64.472 66.495 62.162 66.792 59.786 66.792C56.684 66.792 54.044 66.396 51.866 65.604C49.754 64.746 48.467 63.558 48.005 62.04C47.147 59.4 46.223 56.265 45.233 52.635C44.243 49.005 43.187 45.012 42.065 40.656C41.141 44.946 40.184 49.137 39.194 53.229C38.204 57.321 37.313 60.786 36.521 63.624C35.531 64.548 34.046 65.307 32.066 65.901C30.086 66.495 27.908 66.792 25.532 66.792C22.562 66.792 19.856 66.396 17.414 65.604C15.038 64.746 13.487 63.558 12.761 62.04C12.167 60.852 11.507 59.103 10.781 56.793C10.121 54.417 9.428 51.744 8.702 48.774C7.976 45.738 7.217 42.471 6.425 38.973C5.699 35.475 5.006 31.977 4.346 28.479C3.752 24.981 3.191 21.582 2.663 18.282C2.135 14.916 1.739 11.847 1.475 9.075C2.399 8.217 3.686 7.425 5.336 6.699C6.986 5.973 8.768 5.61 10.682 5.61C13.19 5.61 15.236 6.171 16.82 7.29299C18.47 8.349 19.493 10.164 19.889 12.738C20.945 19.47 21.803 25.08 22.463 29.568C23.189 34.056 23.75 37.752 24.146 40.656C24.608 43.494 24.938 45.705 25.136 47.289C25.334 48.873 25.532 50.127 25.73 51.051H26.225C26.819 48.411 27.38 45.969 27.908 43.725C28.436 41.481 28.964 39.237 29.492 36.993C30.086 34.683 30.68 32.241 31.274 29.667C31.868 27.027 32.495 24.024 33.155 20.658ZM114.089 67.584C110.195 67.584 106.565 67.056 103.199 66C99.899 64.878 96.995 63.228 94.487 61.05C92.045 58.872 90.098 56.133 88.646 52.833C87.26 49.533 86.567 45.672 86.567 41.25C86.567 36.894 87.26 33.165 88.646 30.063C90.098 26.895 91.979 24.321 94.289 22.341C96.599 20.295 99.239 18.81 102.209 17.886C105.179 16.896 108.215 16.401 111.317 16.401C114.815 16.401 117.983 16.929 120.821 17.985C123.725 19.041 126.2 20.493 128.246 22.341C130.358 24.189 131.975 26.4 133.097 28.974C134.285 31.548 134.879 34.353 134.879 37.389C134.879 39.633 134.252 41.349 132.998 42.537C131.744 43.725 129.995 44.484 127.751 44.814L103.298 48.477C104.024 50.655 105.509 52.305 107.753 53.427C109.997 54.483 112.571 55.011 115.475 55.011C118.181 55.011 120.722 54.681 123.098 54.021C125.54 53.295 127.52 52.47 129.038 51.546C130.094 52.206 130.985 53.13 131.711 54.318C132.437 55.506 132.8 56.76 132.8 58.08C132.8 61.05 131.414 63.261 128.642 64.713C126.53 65.835 124.154 66.594 121.514 66.99C118.874 67.386 116.399 67.584 114.089 67.584ZM111.317 28.677C109.733 28.677 108.347 28.941 107.159 29.469C106.037 29.997 105.113 30.69 104.387 31.548C103.661 32.34 103.1 33.264 102.704 34.32C102.374 35.31 102.176 36.333 102.11 37.389L119.039 34.617C118.841 33.297 118.115 31.977 116.861 30.657C115.607 29.337 113.759 28.677 111.317 28.677ZM160.107 65.901C159.381 66.033 158.292 66.198 156.84 66.396C155.454 66.66 154.035 66.792 152.583 66.792C151.131 66.792 149.811 66.693 148.623 66.495C147.501 66.297 146.544 65.901 145.752 65.307C144.96 64.713 144.333 63.921 143.871 62.931C143.475 61.875 143.277 60.522 143.277 58.872V1.452C144.003 1.32 145.059 1.155 146.445 0.956999C147.897 0.692999 149.349 0.560999 150.801 0.560999C152.253 0.560999 153.54 0.659997 154.662 0.857995C155.85 1.056 156.84 1.452 157.632 2.046C158.424 2.64 159.018 3.465 159.414 4.52099C159.876 5.511 160.107 6.831 160.107 8.481V65.901ZM197.853 29.667C196.203 29.667 194.619 29.931 193.101 30.459C191.649 30.987 190.362 31.779 189.24 32.835C188.184 33.825 187.326 35.079 186.666 36.597C186.006 38.115 185.676 39.897 185.676 41.943C185.676 46.035 186.831 49.104 189.141 51.15C191.517 53.196 194.388 54.219 197.754 54.219C199.734 54.219 201.45 53.988 202.902 53.526C204.354 53.064 205.641 52.569 206.763 52.041C208.083 52.965 209.073 53.988 209.733 55.11C210.393 56.166 210.723 57.453 210.723 58.971C210.723 61.677 209.436 63.789 206.862 65.307C204.288 66.759 200.724 67.485 196.17 67.485C192.012 67.485 188.25 66.891 184.884 65.703C181.518 64.449 178.614 62.733 176.172 60.555C173.796 58.311 171.948 55.638 170.628 52.536C169.308 49.434 168.648 46.002 168.648 42.24C168.648 37.884 169.341 34.089 170.727 30.855C172.179 27.555 174.126 24.849 176.568 22.737C179.01 20.625 181.815 19.041 184.983 17.985C188.217 16.929 191.616 16.401 195.18 16.401C199.932 16.401 203.595 17.259 206.169 18.975C208.743 20.691 210.03 22.902 210.03 25.608C210.03 26.862 209.733 28.05 209.139 29.172C208.545 30.228 207.852 31.152 207.06 31.944C205.938 31.416 204.585 30.921 203.001 30.459C201.417 29.931 199.701 29.667 197.853 29.667ZM267.51 41.943C267.51 46.035 266.883 49.698 265.629 52.932C264.375 56.1 262.593 58.773 260.283 60.951C258.039 63.129 255.333 64.779 252.165 65.901C248.997 67.023 245.466 67.584 241.572 67.584C237.678 67.584 234.147 66.99 230.979 65.802C227.811 64.614 225.072 62.931 222.762 60.753C220.518 58.509 218.769 55.803 217.515 52.635C216.261 49.467 215.634 45.903 215.634 41.943C215.634 38.049 216.261 34.518 217.515 31.35C218.769 28.182 220.518 25.509 222.762 23.331C225.072 21.087 227.811 19.371 230.979 18.183C234.147 16.995 237.678 16.401 241.572 16.401C245.466 16.401 248.997 17.028 252.165 18.282C255.333 19.47 258.039 21.186 260.283 23.43C262.593 25.608 264.375 28.281 265.629 31.449C266.883 34.617 267.51 38.115 267.51 41.943ZM232.86 41.943C232.86 45.969 233.619 49.071 235.137 51.249C236.721 53.361 238.899 54.417 241.671 54.417C244.443 54.417 246.555 53.328 248.007 51.15C249.525 48.972 250.284 45.903 250.284 41.943C250.284 37.983 249.525 34.947 248.007 32.835C246.489 30.657 244.344 29.568 241.572 29.568C238.8 29.568 236.655 30.657 235.137 32.835C233.619 34.947 232.86 37.983 232.86 41.943ZM298.788 16.401C301.494 16.401 304.134 16.797 306.708 17.589C309.348 18.315 311.625 19.437 313.539 20.955C315.519 19.635 317.73 18.546 320.172 17.688C322.68 16.83 325.683 16.401 329.181 16.401C331.689 16.401 334.131 16.731 336.507 17.391C338.949 18.051 341.094 19.107 342.942 20.559C344.856 21.945 346.374 23.826 347.496 26.202C348.618 28.512 349.179 31.35 349.179 34.716V65.901C348.519 66.099 347.463 66.297 346.011 66.495C344.625 66.693 343.173 66.792 341.655 66.792C340.203 66.792 338.883 66.693 337.695 66.495C336.573 66.297 335.616 65.901 334.824 65.307C334.032 64.713 333.405 63.921 332.943 62.931C332.547 61.875 332.349 60.522 332.349 58.872V35.211C332.349 33.231 331.788 31.812 330.666 30.954C329.544 30.03 328.026 29.568 326.112 29.568C325.188 29.568 324.198 29.799 323.142 30.261C322.086 30.657 321.294 31.086 320.766 31.548C320.832 31.812 320.865 32.076 320.865 32.34C320.865 32.538 320.865 32.736 320.865 32.934V65.901C320.139 66.099 319.05 66.297 317.598 66.495C316.212 66.693 314.793 66.792 313.341 66.792C311.889 66.792 310.569 66.693 309.381 66.495C308.259 66.297 307.302 65.901 306.51 65.307C305.718 64.713 305.091 63.921 304.629 62.931C304.233 61.875 304.035 60.522 304.035 58.872V35.211C304.035 33.231 303.408 31.812 302.154 30.954C300.966 30.03 299.514 29.568 297.798 29.568C296.61 29.568 295.587 29.766 294.729 30.162C293.871 30.492 293.145 30.822 292.551 31.152V65.901C291.891 66.099 290.835 66.297 289.383 66.495C287.997 66.693 286.545 66.792 285.027 66.792C283.575 66.792 282.255 66.693 281.067 66.495C279.945 66.297 278.988 65.901 278.196 65.307C277.404 64.713 276.777 63.921 276.315 62.931C275.919 61.875 275.721 60.522 275.721 58.872V28.974C275.721 27.192 276.084 25.773 276.81 24.717C277.602 23.661 278.658 22.671 279.978 21.747C282.222 20.163 284.994 18.876 288.294 17.886C291.66 16.896 295.158 16.401 298.788 16.401ZM384.889 67.584C380.995 67.584 377.365 67.056 373.999 66C370.699 64.878 367.795 63.228 365.287 61.05C362.845 58.872 360.898 56.133 359.446 52.833C358.06 49.533 357.367 45.672 357.367 41.25C357.367 36.894 358.06 33.165 359.446 30.063C360.898 26.895 362.779 24.321 365.089 22.341C367.399 20.295 370.039 18.81 373.009 17.886C375.979 16.896 379.015 16.401 382.117 16.401C385.615 16.401 388.783 16.929 391.621 17.985C394.525 19.041 397 20.493 399.046 22.341C401.158 24.189 402.775 26.4 403.897 28.974C405.085 31.548 405.679 34.353 405.679 37.389C405.679 39.633 405.052 41.349 403.798 42.537C402.544 43.725 400.795 44.484 398.551 44.814L374.098 48.477C374.824 50.655 376.309 52.305 378.553 53.427C380.797 54.483 383.371 55.011 386.275 55.011C388.981 55.011 391.522 54.681 393.898 54.021C396.34 53.295 398.32 52.47 399.838 51.546C400.894 52.206 401.785 53.13 402.511 54.318C403.237 55.506 403.6 56.76 403.6 58.08C403.6 61.05 402.214 63.261 399.442 64.713C397.33 65.835 394.954 66.594 392.314 66.99C389.674 67.386 387.199 67.584 384.889 67.584ZM382.117 28.677C380.533 28.677 379.147 28.941 377.959 29.469C376.837 29.997 375.913 30.69 375.187 31.548C374.461 32.34 373.9 33.264 373.504 34.32C373.174 35.31 372.976 36.333 372.91 37.389L389.839 34.617C389.641 33.297 388.915 31.977 387.661 30.657C386.407 29.337 384.559 28.677 382.117 28.677ZM41.372 168.02C40.448 168.812 38.996 169.505 37.016 170.099C35.102 170.693 32.99 170.99 30.68 170.99C27.908 170.99 25.532 170.594 23.552 169.802C21.572 168.944 20.219 167.789 19.493 166.337C18.767 164.819 17.876 162.872 16.82 160.496C15.764 158.054 14.642 155.348 13.454 152.378C12.332 149.408 11.144 146.273 9.89 142.973C8.702 139.607 7.547 136.208 6.425 132.776C5.303 129.344 4.247 125.978 3.257 122.678C2.267 119.378 1.409 116.276 0.683 113.372C1.607 112.448 2.927 111.623 4.643 110.897C6.425 110.105 8.306 109.709 10.286 109.709C12.728 109.709 14.708 110.237 16.226 111.293C17.81 112.283 18.965 114.164 19.691 116.936C21.473 123.404 23.255 129.608 25.037 135.548C26.885 141.422 28.799 147.56 30.779 153.962H31.373C33.155 147.758 34.97 140.993 36.818 133.667C38.732 126.341 40.547 119.048 42.263 111.788C43.451 111.194 44.705 110.699 46.025 110.303C47.411 109.907 48.962 109.709 50.678 109.709C53.12 109.709 55.199 110.27 56.915 111.392C58.631 112.448 59.489 114.23 59.489 116.738C59.489 118.19 59.126 120.302 58.4 123.074C57.74 125.846 56.849 128.981 55.727 132.479C54.671 135.911 53.45 139.508 52.064 143.27C50.744 147.032 49.391 150.596 48.005 153.962C46.685 157.262 45.431 160.199 44.243 162.773C43.055 165.281 42.098 167.03 41.372 168.02ZM65.9263 122.579C66.5863 122.381 67.6093 122.183 68.9953 121.985C70.4473 121.787 71.9323 121.688 73.4503 121.688C74.9023 121.688 76.1893 121.787 77.3113 121.985C78.4993 122.183 79.4893 122.579 80.2813 123.173C81.0733 123.767 81.6673 124.592 82.0633 125.648C82.5253 126.638 82.7563 127.958 82.7563 129.608V150.893C82.7563 153.599 83.4163 155.546 84.7363 156.734C86.0563 157.856 87.9703 158.417 90.4783 158.417C91.9963 158.417 93.2173 158.285 94.1413 158.021C95.1313 157.757 95.8903 157.493 96.4183 157.229V122.579C97.0783 122.381 98.1013 122.183 99.4873 121.985C100.939 121.787 102.424 121.688 103.942 121.688C105.394 121.688 106.681 121.787 107.803 121.985C108.991 122.183 109.981 122.579 110.773 123.173C111.565 123.767 112.159 124.592 112.555 125.648C113.017 126.638 113.248 127.958 113.248 129.608V159.704C113.248 163.004 111.862 165.479 109.09 167.129C106.78 168.581 104.008 169.67 100.774 170.396C97.6063 171.188 94.1413 171.584 90.3793 171.584C86.8153 171.584 83.5153 171.188 80.4793 170.396C77.5093 169.604 74.9353 168.383 72.7573 166.733C70.5793 165.083 68.8963 162.971 67.7083 160.397C66.5203 157.757 65.9263 154.589 65.9263 150.893V122.579ZM121.468 145.943C121.468 141.587 122.128 137.825 123.448 134.657C124.768 131.423 126.583 128.75 128.893 126.638C131.269 124.526 134.008 122.975 137.11 121.985C140.278 120.929 143.677 120.401 147.307 120.401C148.627 120.401 149.914 120.533 151.168 120.797C152.422 120.995 153.445 121.259 154.237 121.589V105.551C154.897 105.353 155.953 105.155 157.405 104.957C158.857 104.693 160.342 104.561 161.86 104.561C163.312 104.561 164.599 104.66 165.721 104.858C166.909 105.056 167.899 105.452 168.691 106.046C169.483 106.64 170.077 107.465 170.473 108.521C170.869 109.511 171.067 110.831 171.067 112.481V159.407C171.067 162.509 169.615 164.984 166.711 166.832C164.797 168.086 162.322 169.175 159.286 170.099C156.25 171.089 152.752 171.584 148.792 171.584C144.502 171.584 140.641 170.99 137.209 169.802C133.843 168.614 130.972 166.898 128.596 164.654C126.286 162.41 124.504 159.737 123.25 156.635C122.062 153.467 121.468 149.903 121.468 145.943ZM149.584 133.568C146.02 133.568 143.281 134.591 141.367 136.637C139.453 138.683 138.496 141.785 138.496 145.943C138.496 150.035 139.387 153.137 141.169 155.249C142.951 157.295 145.525 158.318 148.891 158.318C150.079 158.318 151.135 158.153 152.059 157.823C153.049 157.427 153.808 156.998 154.336 156.536V134.756C153.016 133.964 151.432 133.568 149.584 133.568ZM205.018 120.401C208.78 120.401 212.179 120.896 215.215 121.886C218.317 122.81 220.924 124.031 223.036 125.549C224.356 126.473 225.379 127.496 226.105 128.618C226.897 129.74 227.293 131.192 227.293 132.974V167.624C227.293 171.122 226.633 174.125 225.313 176.633C223.993 179.207 222.178 181.319 219.868 182.969C217.624 184.685 214.951 185.939 211.849 186.731C208.813 187.523 205.546 187.919 202.048 187.919C196.042 187.919 191.323 187.094 187.891 185.444C184.459 183.86 182.743 181.253 182.743 177.623C182.743 176.105 183.04 174.752 183.634 173.564C184.294 172.442 185.02 171.584 185.812 170.99C187.726 172.046 189.871 172.937 192.247 173.663C194.689 174.389 197.197 174.752 199.771 174.752C203.335 174.752 206.173 174.158 208.285 172.97C210.397 171.782 211.453 169.868 211.453 167.228V165.644C208.747 166.832 205.447 167.426 201.553 167.426C198.583 167.426 195.745 166.997 193.039 166.139C190.399 165.215 188.056 163.829 186.01 161.981C184.03 160.067 182.413 157.625 181.159 154.655C179.971 151.685 179.377 148.154 179.377 144.062C179.377 140.036 180.004 136.538 181.258 133.568C182.578 130.598 184.36 128.156 186.604 126.242C188.914 124.262 191.62 122.81 194.722 121.886C197.89 120.896 201.322 120.401 205.018 120.401ZM211.156 134.756C210.694 134.492 210.001 134.228 209.077 133.964C208.219 133.7 207.13 133.568 205.81 133.568C202.576 133.568 200.134 134.492 198.484 136.34C196.9 138.122 196.108 140.696 196.108 144.062C196.108 147.89 196.9 150.662 198.484 152.378C200.134 154.028 202.213 154.853 204.721 154.853C207.427 154.853 209.572 154.226 211.156 152.972V134.756ZM263.169 171.584C259.275 171.584 255.645 171.056 252.279 170C248.979 168.878 246.075 167.228 243.567 165.05C241.125 162.872 239.178 160.133 237.726 156.833C236.34 153.533 235.647 149.672 235.647 145.25C235.647 140.894 236.34 137.165 237.726 134.063C239.178 130.895 241.059 128.321 243.369 126.341C245.679 124.295 248.319 122.81 251.289 121.886C254.259 120.896 257.295 120.401 260.397 120.401C263.895 120.401 267.063 120.929 269.901 121.985C272.805 123.041 275.28 124.493 277.326 126.341C279.438 128.189 281.055 130.4 282.177 132.974C283.365 135.548 283.959 138.353 283.959 141.389C283.959 143.633 283.332 145.349 282.078 146.537C280.824 147.725 279.075 148.484 276.831 148.814L252.378 152.477C253.104 154.655 254.589 156.305 256.833 157.427C259.077 158.483 261.651 159.011 264.555 159.011C267.261 159.011 269.802 158.681 272.178 158.021C274.62 157.295 276.6 156.47 278.118 155.546C279.174 156.206 280.065 157.13 280.791 158.318C281.517 159.506 281.88 160.76 281.88 162.08C281.88 165.05 280.494 167.261 277.722 168.713C275.61 169.835 273.234 170.594 270.594 170.99C267.954 171.386 265.479 171.584 263.169 171.584ZM260.397 132.677C258.813 132.677 257.427 132.941 256.239 133.469C255.117 133.997 254.193 134.69 253.467 135.548C252.741 136.34 252.18 137.264 251.784 138.32C251.454 139.31 251.256 140.333 251.19 141.389L268.119 138.617C267.921 137.297 267.195 135.977 265.941 134.657C264.687 133.337 262.839 132.677 260.397 132.677ZM308.89 153.467C308.89 155.183 309.418 156.404 310.474 157.13C311.596 157.856 313.147 158.219 315.127 158.219C316.117 158.219 317.14 158.153 318.196 158.021C319.252 157.823 320.176 157.592 320.968 157.328C321.562 158.054 322.057 158.879 322.453 159.803C322.915 160.661 323.146 161.717 323.146 162.971C323.146 165.479 322.189 167.525 320.275 169.109C318.427 170.693 315.127 171.485 310.375 171.485C304.567 171.485 300.079 170.165 296.911 167.525C293.809 164.885 292.258 160.595 292.258 154.655V112.283C292.984 112.085 294.007 111.887 295.327 111.689C296.713 111.425 298.165 111.293 299.683 111.293C302.587 111.293 304.831 111.821 306.415 112.877C308.065 113.867 308.89 116.012 308.89 119.312V125.648H321.859C322.255 126.374 322.618 127.298 322.948 128.42C323.344 129.476 323.542 130.664 323.542 131.984C323.542 134.294 323.014 135.977 321.958 137.033C320.968 138.023 319.615 138.518 317.899 138.518H308.89V153.467Z" fill="#FFBC00"/>
</svg>
