<svg width="413" height="196" viewBox="0 0 413 196" fill="none" xmlns="http://www.w3.org/2000/svg">
<g filter="url(#filter0_d_125_719)">
<path d="M36.3391 20.658C37.0651 20.328 38.1871 19.965 39.7051 19.569C41.2891 19.107 42.8731 18.876 44.4571 18.876C47.2291 18.876 49.5391 19.305 51.3871 20.163C53.2351 20.955 54.3571 22.143 54.7531 23.727C55.4791 26.433 56.1391 28.974 56.7331 31.35C57.3931 33.66 58.0201 35.904 58.6141 38.082C59.2081 40.194 59.7691 42.306 60.2971 44.418C60.8911 46.53 61.4521 48.741 61.9801 51.051H62.4751C63.0691 47.025 63.5971 43.197 64.0591 39.567C64.5211 35.871 64.9501 32.274 65.3461 28.776C65.7421 25.212 66.1381 21.714 66.5341 18.282C66.9301 14.784 67.3261 11.253 67.7221 7.689C70.1641 6.303 72.7711 5.61 75.5431 5.61C77.9851 5.61 80.0971 6.138 81.8791 7.194C83.6611 8.25 84.5521 10.032 84.5521 12.54C84.5521 13.992 84.3871 16.071 84.0571 18.777C83.7931 21.417 83.3971 24.387 82.8691 27.687C82.4071 30.987 81.8461 34.452 81.1861 38.082C80.5261 41.712 79.8331 45.177 79.1071 48.477C78.3811 51.777 77.6221 54.78 76.8301 57.486C76.1041 60.126 75.4111 62.172 74.7511 63.624C73.7611 64.548 72.1441 65.307 69.9001 65.901C67.6561 66.495 65.3461 66.792 62.9701 66.792C59.8681 66.792 57.2281 66.396 55.0501 65.604C52.9381 64.746 51.6511 63.558 51.1891 62.04C50.3311 59.4 49.4071 56.265 48.4171 52.635C47.4271 49.005 46.3711 45.012 45.2491 40.656C44.3251 44.946 43.3681 49.137 42.3781 53.229C41.3881 57.321 40.4971 60.786 39.7051 63.624C38.7151 64.548 37.2301 65.307 35.2501 65.901C33.2701 66.495 31.0921 66.792 28.7161 66.792C25.7461 66.792 23.0401 66.396 20.5981 65.604C18.2221 64.746 16.6711 63.558 15.9451 62.04C15.3511 60.852 14.6911 59.103 13.9651 56.793C13.3051 54.417 12.6121 51.744 11.8861 48.774C11.1601 45.738 10.4011 42.471 9.60908 38.973C8.88308 35.475 8.19008 31.977 7.53008 28.479C6.93608 24.981 6.37508 21.582 5.84708 18.282C5.31908 14.916 4.92308 11.847 4.65908 9.075C5.58308 8.217 6.87008 7.425 8.52008 6.699C10.1701 5.973 11.9521 5.61 13.8661 5.61C16.3741 5.61 18.4201 6.171 20.0041 7.29299C21.6541 8.349 22.6771 10.164 23.0731 12.738C24.1291 19.47 24.9871 25.08 25.6471 29.568C26.3731 34.056 26.9341 37.752 27.3301 40.656C27.7921 43.494 28.1221 45.705 28.3201 47.289C28.5181 48.873 28.7161 50.127 28.9141 51.051H29.4091C30.0031 48.411 30.5641 45.969 31.0921 43.725C31.6201 41.481 32.1481 39.237 32.6761 36.993C33.2701 34.683 33.8641 32.241 34.4581 29.667C35.0521 27.027 35.6791 24.024 36.3391 20.658ZM117.273 67.584C113.379 67.584 109.749 67.056 106.383 66C103.083 64.878 100.179 63.228 97.6711 61.05C95.2291 58.872 93.2821 56.133 91.8301 52.833C90.4441 49.533 89.7511 45.672 89.7511 41.25C89.7511 36.894 90.4441 33.165 91.8301 30.063C93.2821 26.895 95.1631 24.321 97.4731 22.341C99.7831 20.295 102.423 18.81 105.393 17.886C108.363 16.896 111.399 16.401 114.501 16.401C117.999 16.401 121.167 16.929 124.005 17.985C126.909 19.041 129.384 20.493 131.43 22.341C133.542 24.189 135.159 26.4 136.281 28.974C137.469 31.548 138.063 34.353 138.063 37.389C138.063 39.633 137.436 41.349 136.182 42.537C134.928 43.725 133.179 44.484 130.935 44.814L106.482 48.477C107.208 50.655 108.693 52.305 110.937 53.427C113.181 54.483 115.755 55.011 118.659 55.011C121.365 55.011 123.906 54.681 126.282 54.021C128.724 53.295 130.704 52.47 132.222 51.546C133.278 52.206 134.169 53.13 134.895 54.318C135.621 55.506 135.984 56.76 135.984 58.08C135.984 61.05 134.598 63.261 131.826 64.713C129.714 65.835 127.338 66.594 124.698 66.99C122.058 67.386 119.583 67.584 117.273 67.584ZM114.501 28.677C112.917 28.677 111.531 28.941 110.343 29.469C109.221 29.997 108.297 30.69 107.571 31.548C106.845 32.34 106.284 33.264 105.888 34.32C105.558 35.31 105.36 36.333 105.294 37.389L122.223 34.617C122.025 33.297 121.299 31.977 120.045 30.657C118.791 29.337 116.943 28.677 114.501 28.677ZM163.291 65.901C162.565 66.033 161.476 66.198 160.024 66.396C158.638 66.66 157.219 66.792 155.767 66.792C154.315 66.792 152.995 66.693 151.807 66.495C150.685 66.297 149.728 65.901 148.936 65.307C148.144 64.713 147.517 63.921 147.055 62.931C146.659 61.875 146.461 60.522 146.461 58.872V1.452C147.187 1.32 148.243 1.155 149.629 0.956999C151.081 0.692999 152.533 0.560999 153.985 0.560999C155.437 0.560999 156.724 0.659997 157.846 0.857995C159.034 1.056 160.024 1.452 160.816 2.046C161.608 2.64 162.202 3.465 162.598 4.52099C163.06 5.511 163.291 6.831 163.291 8.481V65.901ZM201.037 29.667C199.387 29.667 197.803 29.931 196.285 30.459C194.833 30.987 193.546 31.779 192.424 32.835C191.368 33.825 190.51 35.079 189.85 36.597C189.19 38.115 188.86 39.897 188.86 41.943C188.86 46.035 190.015 49.104 192.325 51.15C194.701 53.196 197.572 54.219 200.938 54.219C202.918 54.219 204.634 53.988 206.086 53.526C207.538 53.064 208.825 52.569 209.947 52.041C211.267 52.965 212.257 53.988 212.917 55.11C213.577 56.166 213.907 57.453 213.907 58.971C213.907 61.677 212.62 63.789 210.046 65.307C207.472 66.759 203.908 67.485 199.354 67.485C195.196 67.485 191.434 66.891 188.068 65.703C184.702 64.449 181.798 62.733 179.356 60.555C176.98 58.311 175.132 55.638 173.812 52.536C172.492 49.434 171.832 46.002 171.832 42.24C171.832 37.884 172.525 34.089 173.911 30.855C175.363 27.555 177.31 24.849 179.752 22.737C182.194 20.625 184.999 19.041 188.167 17.985C191.401 16.929 194.8 16.401 198.364 16.401C203.116 16.401 206.779 17.259 209.353 18.975C211.927 20.691 213.214 22.902 213.214 25.608C213.214 26.862 212.917 28.05 212.323 29.172C211.729 30.228 211.036 31.152 210.244 31.944C209.122 31.416 207.769 30.921 206.185 30.459C204.601 29.931 202.885 29.667 201.037 29.667ZM270.695 41.943C270.695 46.035 270.068 49.698 268.814 52.932C267.56 56.1 265.778 58.773 263.468 60.951C261.224 63.129 258.518 64.779 255.35 65.901C252.182 67.023 248.651 67.584 244.757 67.584C240.863 67.584 237.332 66.99 234.164 65.802C230.996 64.614 228.257 62.931 225.947 60.753C223.703 58.509 221.954 55.803 220.7 52.635C219.446 49.467 218.819 45.903 218.819 41.943C218.819 38.049 219.446 34.518 220.7 31.35C221.954 28.182 223.703 25.509 225.947 23.331C228.257 21.087 230.996 19.371 234.164 18.183C237.332 16.995 240.863 16.401 244.757 16.401C248.651 16.401 252.182 17.028 255.35 18.282C258.518 19.47 261.224 21.186 263.468 23.43C265.778 25.608 267.56 28.281 268.814 31.449C270.068 34.617 270.695 38.115 270.695 41.943ZM236.045 41.943C236.045 45.969 236.804 49.071 238.322 51.249C239.906 53.361 242.084 54.417 244.856 54.417C247.628 54.417 249.74 53.328 251.192 51.15C252.71 48.972 253.469 45.903 253.469 41.943C253.469 37.983 252.71 34.947 251.192 32.835C249.674 30.657 247.529 29.568 244.757 29.568C241.985 29.568 239.84 30.657 238.322 32.835C236.804 34.947 236.045 37.983 236.045 41.943ZM301.972 16.401C304.678 16.401 307.318 16.797 309.892 17.589C312.532 18.315 314.809 19.437 316.723 20.955C318.703 19.635 320.914 18.546 323.356 17.688C325.864 16.83 328.867 16.401 332.365 16.401C334.873 16.401 337.315 16.731 339.691 17.391C342.133 18.051 344.278 19.107 346.126 20.559C348.04 21.945 349.558 23.826 350.68 26.202C351.802 28.512 352.363 31.35 352.363 34.716V65.901C351.703 66.099 350.647 66.297 349.195 66.495C347.809 66.693 346.357 66.792 344.839 66.792C343.387 66.792 342.067 66.693 340.879 66.495C339.757 66.297 338.8 65.901 338.008 65.307C337.216 64.713 336.589 63.921 336.127 62.931C335.731 61.875 335.533 60.522 335.533 58.872V35.211C335.533 33.231 334.972 31.812 333.85 30.954C332.728 30.03 331.21 29.568 329.296 29.568C328.372 29.568 327.382 29.799 326.326 30.261C325.27 30.657 324.478 31.086 323.95 31.548C324.016 31.812 324.049 32.076 324.049 32.34C324.049 32.538 324.049 32.736 324.049 32.934V65.901C323.323 66.099 322.234 66.297 320.782 66.495C319.396 66.693 317.977 66.792 316.525 66.792C315.073 66.792 313.753 66.693 312.565 66.495C311.443 66.297 310.486 65.901 309.694 65.307C308.902 64.713 308.275 63.921 307.813 62.931C307.417 61.875 307.219 60.522 307.219 58.872V35.211C307.219 33.231 306.592 31.812 305.338 30.954C304.15 30.03 302.698 29.568 300.982 29.568C299.794 29.568 298.771 29.766 297.913 30.162C297.055 30.492 296.329 30.822 295.735 31.152V65.901C295.075 66.099 294.019 66.297 292.567 66.495C291.181 66.693 289.729 66.792 288.211 66.792C286.759 66.792 285.439 66.693 284.251 66.495C283.129 66.297 282.172 65.901 281.38 65.307C280.588 64.713 279.961 63.921 279.499 62.931C279.103 61.875 278.905 60.522 278.905 58.872V28.974C278.905 27.192 279.268 25.773 279.994 24.717C280.786 23.661 281.842 22.671 283.162 21.747C285.406 20.163 288.178 18.876 291.478 17.886C294.844 16.896 298.342 16.401 301.972 16.401ZM388.073 67.584C384.179 67.584 380.549 67.056 377.183 66C373.883 64.878 370.979 63.228 368.471 61.05C366.029 58.872 364.082 56.133 362.63 52.833C361.244 49.533 360.551 45.672 360.551 41.25C360.551 36.894 361.244 33.165 362.63 30.063C364.082 26.895 365.963 24.321 368.273 22.341C370.583 20.295 373.223 18.81 376.193 17.886C379.163 16.896 382.199 16.401 385.301 16.401C388.799 16.401 391.967 16.929 394.805 17.985C397.709 19.041 400.184 20.493 402.23 22.341C404.342 24.189 405.959 26.4 407.081 28.974C408.269 31.548 408.863 34.353 408.863 37.389C408.863 39.633 408.236 41.349 406.982 42.537C405.728 43.725 403.979 44.484 401.735 44.814L377.282 48.477C378.008 50.655 379.493 52.305 381.737 53.427C383.981 54.483 386.555 55.011 389.459 55.011C392.165 55.011 394.706 54.681 397.082 54.021C399.524 53.295 401.504 52.47 403.022 51.546C404.078 52.206 404.969 53.13 405.695 54.318C406.421 55.506 406.784 56.76 406.784 58.08C406.784 61.05 405.398 63.261 402.626 64.713C400.514 65.835 398.138 66.594 395.498 66.99C392.858 67.386 390.383 67.584 388.073 67.584ZM385.301 28.677C383.717 28.677 382.331 28.941 381.143 29.469C380.021 29.997 379.097 30.69 378.371 31.548C377.645 32.34 377.084 33.264 376.688 34.32C376.358 35.31 376.16 36.333 376.094 37.389L393.023 34.617C392.825 33.297 392.099 31.977 390.845 30.657C389.591 29.337 387.743 28.677 385.301 28.677ZM85.5966 168.02C84.6726 168.812 83.2206 169.505 81.2406 170.099C79.3266 170.693 77.2146 170.99 74.9046 170.99C72.1326 170.99 69.7566 170.594 67.7766 169.802C65.7966 168.944 64.4436 167.789 63.7176 166.337C62.9916 164.819 62.1006 162.872 61.0446 160.496C59.9886 158.054 58.8666 155.348 57.6786 152.378C56.5566 149.408 55.3686 146.273 54.1146 142.973C52.9266 139.607 51.7716 136.208 50.6496 132.776C49.5276 129.344 48.4716 125.978 47.4816 122.678C46.4916 119.378 45.6336 116.276 44.9076 113.372C45.8316 112.448 47.1516 111.623 48.8676 110.897C50.6496 110.105 52.5306 109.709 54.5106 109.709C56.9526 109.709 58.9326 110.237 60.4506 111.293C62.0346 112.283 63.1896 114.164 63.9156 116.936C65.6976 123.404 67.4796 129.608 69.2616 135.548C71.1096 141.422 73.0236 147.56 75.0036 153.962H75.5976C77.3796 147.758 79.1946 140.993 81.0426 133.667C82.9566 126.341 84.7716 119.048 86.4876 111.788C87.6756 111.194 88.9296 110.699 90.2496 110.303C91.6356 109.907 93.1866 109.709 94.9026 109.709C97.3446 109.709 99.4236 110.27 101.14 111.392C102.856 112.448 103.714 114.23 103.714 116.738C103.714 118.19 103.351 120.302 102.625 123.074C101.965 125.846 101.074 128.981 99.9516 132.479C98.8956 135.911 97.6746 139.508 96.2886 143.27C94.9686 147.032 93.6156 150.596 92.2296 153.962C90.9096 157.262 89.6556 160.199 88.4676 162.773C87.2796 165.281 86.3226 167.03 85.5966 168.02ZM110.151 122.579C110.811 122.381 111.834 122.183 113.22 121.985C114.672 121.787 116.157 121.688 117.675 121.688C119.127 121.688 120.414 121.787 121.536 121.985C122.724 122.183 123.714 122.579 124.506 123.173C125.298 123.767 125.892 124.592 126.288 125.648C126.75 126.638 126.981 127.958 126.981 129.608V150.893C126.981 153.599 127.641 155.546 128.961 156.734C130.281 157.856 132.195 158.417 134.703 158.417C136.221 158.417 137.442 158.285 138.366 158.021C139.356 157.757 140.115 157.493 140.643 157.229V122.579C141.303 122.381 142.326 122.183 143.712 121.985C145.164 121.787 146.649 121.688 148.167 121.688C149.619 121.688 150.906 121.787 152.028 121.985C153.216 122.183 154.206 122.579 154.998 123.173C155.79 123.767 156.384 124.592 156.78 125.648C157.242 126.638 157.473 127.958 157.473 129.608V159.704C157.473 163.004 156.087 165.479 153.315 167.129C151.005 168.581 148.233 169.67 144.999 170.396C141.831 171.188 138.366 171.584 134.604 171.584C131.04 171.584 127.74 171.188 124.704 170.396C121.734 169.604 119.16 168.383 116.982 166.733C114.804 165.083 113.121 162.971 111.933 160.397C110.745 157.757 110.151 154.589 110.151 150.893V122.579ZM165.693 145.943C165.693 141.587 166.353 137.825 167.673 134.657C168.993 131.423 170.808 128.75 173.118 126.638C175.494 124.526 178.233 122.975 181.335 121.985C184.503 120.929 187.902 120.401 191.532 120.401C192.852 120.401 194.139 120.533 195.393 120.797C196.647 120.995 197.67 121.259 198.462 121.589V105.551C199.122 105.353 200.178 105.155 201.63 104.957C203.082 104.693 204.567 104.561 206.085 104.561C207.537 104.561 208.824 104.66 209.946 104.858C211.134 105.056 212.124 105.452 212.916 106.046C213.708 106.64 214.302 107.465 214.698 108.521C215.094 109.511 215.292 110.831 215.292 112.481V159.407C215.292 162.509 213.84 164.984 210.936 166.832C209.022 168.086 206.547 169.175 203.511 170.099C200.475 171.089 196.977 171.584 193.017 171.584C188.727 171.584 184.866 170.99 181.434 169.802C178.068 168.614 175.197 166.898 172.821 164.654C170.511 162.41 168.729 159.737 167.475 156.635C166.287 153.467 165.693 149.903 165.693 145.943ZM193.809 133.568C190.245 133.568 187.506 134.591 185.592 136.637C183.678 138.683 182.721 141.785 182.721 145.943C182.721 150.035 183.612 153.137 185.394 155.249C187.176 157.295 189.75 158.318 193.116 158.318C194.304 158.318 195.36 158.153 196.284 157.823C197.274 157.427 198.033 156.998 198.561 156.536V134.756C197.241 133.964 195.657 133.568 193.809 133.568ZM249.243 120.401C253.005 120.401 256.404 120.896 259.44 121.886C262.542 122.81 265.149 124.031 267.261 125.549C268.581 126.473 269.604 127.496 270.33 128.618C271.122 129.74 271.518 131.192 271.518 132.974V167.624C271.518 171.122 270.858 174.125 269.538 176.633C268.218 179.207 266.403 181.319 264.093 182.969C261.849 184.685 259.176 185.939 256.074 186.731C253.038 187.523 249.771 187.919 246.273 187.919C240.267 187.919 235.548 187.094 232.116 185.444C228.684 183.86 226.968 181.253 226.968 177.623C226.968 176.105 227.265 174.752 227.859 173.564C228.519 172.442 229.245 171.584 230.037 170.99C231.951 172.046 234.096 172.937 236.472 173.663C238.914 174.389 241.422 174.752 243.996 174.752C247.56 174.752 250.398 174.158 252.51 172.97C254.622 171.782 255.678 169.868 255.678 167.228V165.644C252.972 166.832 249.672 167.426 245.778 167.426C242.808 167.426 239.97 166.997 237.264 166.139C234.624 165.215 232.281 163.829 230.235 161.981C228.255 160.067 226.638 157.625 225.384 154.655C224.196 151.685 223.602 148.154 223.602 144.062C223.602 140.036 224.229 136.538 225.483 133.568C226.803 130.598 228.585 128.156 230.829 126.242C233.139 124.262 235.845 122.81 238.947 121.886C242.115 120.896 245.547 120.401 249.243 120.401ZM255.381 134.756C254.919 134.492 254.226 134.228 253.302 133.964C252.444 133.7 251.355 133.568 250.035 133.568C246.801 133.568 244.359 134.492 242.709 136.34C241.125 138.122 240.333 140.696 240.333 144.062C240.333 147.89 241.125 150.662 242.709 152.378C244.359 154.028 246.438 154.853 248.946 154.853C251.652 154.853 253.797 154.226 255.381 152.972V134.756ZM307.394 171.584C303.5 171.584 299.87 171.056 296.504 170C293.204 168.878 290.3 167.228 287.792 165.05C285.35 162.872 283.403 160.133 281.951 156.833C280.565 153.533 279.872 149.672 279.872 145.25C279.872 140.894 280.565 137.165 281.951 134.063C283.403 130.895 285.284 128.321 287.594 126.341C289.904 124.295 292.544 122.81 295.514 121.886C298.484 120.896 301.52 120.401 304.622 120.401C308.12 120.401 311.288 120.929 314.126 121.985C317.03 123.041 319.505 124.493 321.551 126.341C323.663 128.189 325.28 130.4 326.402 132.974C327.59 135.548 328.184 138.353 328.184 141.389C328.184 143.633 327.557 145.349 326.303 146.537C325.049 147.725 323.3 148.484 321.056 148.814L296.603 152.477C297.329 154.655 298.814 156.305 301.058 157.427C303.302 158.483 305.876 159.011 308.78 159.011C311.486 159.011 314.027 158.681 316.403 158.021C318.845 157.295 320.825 156.47 322.343 155.546C323.399 156.206 324.29 157.13 325.016 158.318C325.742 159.506 326.105 160.76 326.105 162.08C326.105 165.05 324.719 167.261 321.947 168.713C319.835 169.835 317.459 170.594 314.819 170.99C312.179 171.386 309.704 171.584 307.394 171.584ZM304.622 132.677C303.038 132.677 301.652 132.941 300.464 133.469C299.342 133.997 298.418 134.69 297.692 135.548C296.966 136.34 296.405 137.264 296.009 138.32C295.679 139.31 295.481 140.333 295.415 141.389L312.344 138.617C312.146 137.297 311.42 135.977 310.166 134.657C308.912 133.337 307.064 132.677 304.622 132.677ZM353.115 153.467C353.115 155.183 353.643 156.404 354.699 157.13C355.821 157.856 357.372 158.219 359.352 158.219C360.342 158.219 361.365 158.153 362.421 158.021C363.477 157.823 364.401 157.592 365.193 157.328C365.787 158.054 366.282 158.879 366.678 159.803C367.14 160.661 367.371 161.717 367.371 162.971C367.371 165.479 366.414 167.525 364.5 169.109C362.652 170.693 359.352 171.485 354.6 171.485C348.792 171.485 344.304 170.165 341.136 167.525C338.034 164.885 336.483 160.595 336.483 154.655V112.283C337.209 112.085 338.232 111.887 339.552 111.689C340.938 111.425 342.39 111.293 343.908 111.293C346.812 111.293 349.056 111.821 350.64 112.877C352.29 113.867 353.115 116.012 353.115 119.312V125.648H366.084C366.48 126.374 366.843 127.298 367.173 128.42C367.569 129.476 367.767 130.664 367.767 131.984C367.767 134.294 367.239 135.977 366.183 137.033C365.193 138.023 363.84 138.518 362.124 138.518H353.115V153.467Z" fill="#FFBC00"/>
</g>
<defs>
<filter id="filter0_d_125_719" x="0.660156" y="0.560547" width="412.203" height="195.359" filterUnits="userSpaceOnUse" color-interpolation-filters="sRGB">
<feFlood flood-opacity="0" result="BackgroundImageFix"/>
<feColorMatrix in="SourceAlpha" type="matrix" values="0 0 0 0 0 0 0 0 0 0 0 0 0 0 0 0 0 0 127 0" result="hardAlpha"/>
<feOffset dy="4"/>
<feGaussianBlur stdDeviation="2"/>
<feComposite in2="hardAlpha" operator="out"/>
<feColorMatrix type="matrix" values="0 0 0 0 0 0 0 0 0 0 0 0 0 0 0 0 0 0 0.25 0"/>
<feBlend mode="normal" in2="BackgroundImageFix" result="effect1_dropShadow_125_719"/>
<feBlend mode="normal" in="SourceGraphic" in2="effect1_dropShadow_125_719" result="shape"/>
</filter>
</defs>
</svg>
